<svg width="321" height="245" viewBox="0 0 321 245" fill="none" xmlns="http://www.w3.org/2000/svg">
<g clip-path="url(#clip0_2_5)">
<path d="M284.228 248.876L-5.77338 247.5L26.6463 237.421H140.91L284.228 248.876Z" fill="#0F0389"/>
<path d="M267.837 127C294.899 127 316.837 105.062 316.837 78C316.837 50.938 294.899 29 267.837 29C240.775 29 218.837 50.938 218.837 78C218.837 105.062 240.775 127 267.837 127Z" fill="#FF6584"/>
<path d="M78.8258 239.154C78.8258 239.154 79.2573 228.994 88.1021 230.175L78.8258 239.154Z" fill="#3F3D56"/>
<path d="M76.3267 229.486C78.7715 229.486 80.7534 227.258 80.7534 224.511C80.7534 221.763 78.7715 219.536 76.3267 219.536C73.8819 219.536 71.8999 221.763 71.8999 224.511C71.8999 227.258 73.8819 229.486 76.3267 229.486Z" fill="#54ECCC"/>
<path d="M76.856 232.888H75.6064V242.718H76.856V232.888Z" fill="#3F3D56"/>
<path d="M224.607 240.89C224.607 240.89 225.039 230.73 233.884 231.911L224.607 240.89Z" fill="#3F3D56"/>
<path d="M222.108 231.221C224.553 231.221 226.535 228.994 226.535 226.246C226.535 223.498 224.553 221.271 222.108 221.271C219.663 221.271 217.681 223.498 217.681 226.246C217.681 228.994 219.663 231.221 222.108 231.221Z" fill="#54ECCC"/>
<path d="M222.637 234.624H221.388V244.454H222.637V234.624Z" fill="#3F3D56"/>
<path d="M245.919 242.625C245.919 242.625 246.35 232.465 255.195 233.646L245.919 242.625Z" fill="#3F3D56"/>
<path d="M243.42 232.957C245.864 232.957 247.846 230.729 247.846 227.982C247.846 225.234 245.864 223.007 243.42 223.007C240.975 223.007 238.993 225.234 238.993 227.982C238.993 230.729 240.975 232.957 243.42 232.957Z" fill="#54ECCC"/>
<path d="M243.949 236.359H242.699V246.189H243.949V236.359Z" fill="#3F3D56"/>
<path d="M113.727 234.295C113.727 234.295 114.158 224.135 123.003 225.315L113.727 234.295Z" fill="#3F3D56"/>
<path d="M111.228 224.626C113.673 224.626 115.655 222.399 115.655 219.651C115.655 216.903 113.673 214.676 111.228 214.676C108.783 214.676 106.801 216.903 106.801 219.651C106.801 222.399 108.783 224.626 111.228 224.626Z" fill="#54ECCC"/>
<path d="M111.757 228.029H110.507V237.859H111.757V228.029Z" fill="#3F3D56"/>
<path d="M47.9399 236.03C47.9399 236.03 48.3714 225.87 57.2162 227.051L47.9399 236.03Z" fill="#3F3D56"/>
<path d="M45.4408 226.362C47.8856 226.362 49.8675 224.134 49.8675 221.387C49.8675 218.639 47.8856 216.412 45.4408 216.412C42.996 216.412 41.014 218.639 41.014 221.387C41.014 224.134 42.996 226.362 45.4408 226.362Z" fill="#54ECCC"/>
<path d="M45.9701 229.764H44.7205V239.594H45.9701V229.764Z" fill="#3F3D56"/>
<path d="M154.837 218C184.661 218 208.837 193.823 208.837 164C208.837 134.177 184.661 110 154.837 110C125.014 110 100.837 134.177 100.837 164C100.837 193.823 125.014 218 154.837 218Z" fill="#3F3D56"/>
<path d="M124.606 168.523C125.804 166.912 127.302 165.615 128.995 164.726C130.687 163.836 132.533 163.375 134.401 163.375C136.27 163.375 138.116 163.836 139.808 164.726C141.501 165.615 142.999 166.912 144.197 168.523C146.246 166.324 147.663 163.486 148.264 160.374C148.865 157.262 148.623 154.019 147.569 151.063C146.515 148.107 144.698 145.573 142.351 143.789C140.004 142.004 137.235 141.05 134.401 141.05C131.568 141.05 128.799 142.004 126.452 143.789C124.105 145.573 122.288 148.107 121.234 151.063C120.18 154.019 119.938 157.262 120.539 160.374C121.14 163.486 122.557 166.324 124.606 168.523Z" fill="white"/>
<path d="M162.907 168.523C164.104 166.912 165.603 165.615 167.295 164.726C168.988 163.836 170.833 163.375 172.702 163.375C174.57 163.375 176.416 163.836 178.108 164.726C179.801 165.615 181.299 166.912 182.497 168.523C184.546 166.324 185.963 163.486 186.564 160.374C187.165 157.262 186.923 154.019 185.869 151.063C184.815 148.107 182.998 145.573 180.651 143.789C178.304 142.004 175.535 141.05 172.702 141.05C169.868 141.05 167.099 142.004 164.752 143.789C162.406 145.573 160.588 148.107 159.534 151.063C158.48 154.019 158.238 157.262 158.839 160.374C159.44 163.486 160.857 166.324 162.907 168.523Z" fill="white"/>
<path d="M129.562 157.048C132.257 157.048 134.442 154.592 134.442 151.564C134.442 148.535 132.257 146.08 129.562 146.08C126.867 146.08 124.683 148.535 124.683 151.564C124.683 154.592 126.867 157.048 129.562 157.048Z" fill="#3F3D56"/>
<path d="M167.861 157.048C170.556 157.048 172.741 154.592 172.741 151.564C172.741 148.535 170.556 146.08 167.861 146.08C165.166 146.08 162.982 148.535 162.982 151.564C162.982 154.592 165.166 157.048 167.861 157.048Z" fill="#3F3D56"/>
<path d="M120.216 184.1C123.35 184.1 125.89 181.245 125.89 177.723C125.89 174.201 123.35 171.346 120.216 171.346C117.082 171.346 114.542 174.201 114.542 177.723C114.542 181.245 117.082 184.1 120.216 184.1Z" fill="#FF6584"/>
<path d="M185.468 184.1C188.602 184.1 191.143 181.245 191.143 177.723C191.143 174.201 188.602 171.346 185.468 171.346C182.335 171.346 179.794 174.201 179.794 177.723C179.794 181.245 182.335 184.1 185.468 184.1Z" fill="#FF6584"/>
<path d="M152.842 164.969L148.587 185.694L155.679 177.723L152.842 164.969Z" fill="#FF6584"/>
<path d="M174.709 244.679L169.877 240.122L169.99 244.679H168.489L168.369 239.861L161.846 244.679H159.115L168.32 237.879L167.964 223.601L167.698 212.817L169.194 212.771L169.465 223.601L169.821 237.867L177.042 244.679H174.709Z" fill="#3F3D56"/>
<path d="M152.01 244.679L147.179 240.122L147.291 244.679H145.795L145.675 239.861L139.151 244.679H136.421L145.622 237.879L145.266 223.601L145 212.817L146.5 212.771L146.77 223.601L147.123 237.867L154.344 244.679H152.01Z" fill="#3F3D56"/>
<path d="M155.679 105.984C154.356 105.984 153.189 107.139 152.408 108.914C151.72 106.246 150.275 104.39 148.587 104.39C148.472 104.403 148.358 104.424 148.246 104.454C147.597 101.605 146.089 99.6074 144.331 99.6074C141.981 99.6074 140.076 103.176 140.076 107.578C140.076 111.981 141.981 115.549 144.331 115.549C144.446 115.537 144.56 115.515 144.672 115.485C145.321 118.334 146.829 120.332 148.587 120.332C149.91 120.332 151.078 119.177 151.858 117.402C152.546 120.071 153.991 121.926 155.679 121.926C158.03 121.926 159.935 118.357 159.935 113.955C159.935 109.553 158.03 105.984 155.679 105.984Z" fill="#3F3D56"/>
<path d="M103.837 185C101.736 185 99.6557 184.586 97.7145 183.782C95.7733 182.978 94.0094 181.799 92.5237 180.314C91.0379 178.828 89.8594 177.064 89.0553 175.123C88.2512 173.182 87.8374 171.101 87.8374 169V161C87.8374 156.757 89.5231 152.687 92.5237 149.686C95.5243 146.686 99.5939 145 103.837 145V185Z" fill="#54ECCC"/>
<path d="M205.837 145C207.939 145 210.019 145.414 211.96 146.218C213.902 147.022 215.665 148.201 217.151 149.686C218.637 151.172 219.815 152.936 220.619 154.877C221.424 156.818 221.837 158.899 221.837 161V169C221.837 171.101 221.424 173.182 220.619 175.123C219.815 177.064 218.637 178.828 217.151 180.314C215.665 181.799 213.902 182.978 211.96 183.782C210.019 184.586 207.939 185 205.837 185V145H205.837Z" fill="#54ECCC"/>
<path d="M213.837 162H211.317C211.317 129.766 185.307 103.542 153.337 103.542C121.368 103.542 95.3582 129.766 95.3582 162H92.8374C92.8374 128.364 119.978 101 153.337 101C186.697 101 213.837 128.364 213.837 162Z" fill="#54ECCC"/>
<path d="M76.4197 113.302L76.4201 113.301L75.3627 112.806L70.9013 110.687L69.3021 109.927L69.1794 110.275L67.0312 116.371L73.0769 119.246L73.1086 119.279L72.7012 120.358C72.6454 120.457 72.5979 120.561 72.5591 120.67C72.2737 121.48 72.8127 122.285 73.3222 122.512C73.8318 122.739 74.4762 122.266 74.7616 121.456C75.0431 120.658 74.768 119.643 74.2715 119.398L74.2719 119.397L73.2145 118.902L69.5974 117.322L71.6641 111.457L71.3578 111.321L69.2903 117.187L68.843 116.992L70.9186 111.102L70.9733 111.128L75.2251 113.151L75.2568 113.183L74.8494 114.263C74.7936 114.361 74.7461 114.466 74.7073 114.574C74.4219 115.384 74.9609 116.19 75.4704 116.416C75.98 116.643 76.6244 116.171 76.9098 115.361C77.1913 114.562 76.9162 113.547 76.4197 113.302Z" fill="white"/>
<path d="M97.3448 128.267C95.1501 126.857 95.5893 123.762 95.5893 123.762C95.5341 121.752 94.0562 122.036 94.0562 122.036L93.5183 122.174C93.2684 122.044 92.9933 121.987 92.7185 122.008L91.9003 122.163C93.7634 122.655 93.6103 124.406 93.6103 124.406L93.8713 126.454L88.9894 124.241L89.5499 122.756C89.6274 122.619 89.6935 122.474 89.7474 122.323C90.1437 121.198 89.3951 120.08 88.6874 119.765C87.9797 119.45 87.0847 120.106 86.6883 121.231C86.2973 122.34 86.6794 123.75 87.3691 124.09L87.3685 124.092L88.8371 124.779L88.848 124.74L97.3448 128.267ZM94.8657 124.668L95.0222 126.629C94.4695 125.757 94.2098 124.693 94.2894 123.627C94.2764 123.247 94.1625 122.881 93.9624 122.575C94.27 122.796 94.5172 123.109 94.6766 123.479C94.836 123.848 94.9014 124.26 94.8657 124.668V124.668Z" fill="white"/>
<path d="M60.1054 99.2751L60.106 99.2738L58.6374 98.5865L52.4995 95.9051L54.0487 94.3561C54.3517 93.9021 54.7993 93.5973 55.2977 93.5055C55.7961 93.4138 56.3067 93.5421 56.7229 93.8638L56.2421 93.0608C56.2421 93.0608 55.3384 91.7162 54.0733 93.1389C54.0733 93.1389 52.5081 95.7322 50.0494 95.0711L58.4462 99.0652L58.4903 99.1101L57.9245 100.609C57.847 100.747 57.7809 100.891 57.727 101.042C57.3307 102.167 58.0793 103.286 58.787 103.601C59.4947 103.916 60.3898 103.259 60.7862 102.135C61.1771 101.025 60.795 99.6157 60.1054 99.2751Z" fill="white"/>
<path d="M82.5761 90.499L82.0103 91.9984C81.9328 92.1355 81.8667 92.2804 81.8129 92.4311C81.4165 93.5559 82.1651 94.6746 82.8728 94.9897C83.5805 95.3047 84.4756 94.6482 84.8719 93.5235C85.2629 92.4141 84.8808 91.0047 84.1912 90.6641L84.1918 90.6628L82.7232 89.9755L77.6993 87.7807L80.5698 79.6354L80.1444 79.446L77.2728 87.5943L76.6516 87.323L79.5343 79.1428L79.6103 79.1789L85.5156 81.9879L85.5597 82.0327L84.9939 83.5321C84.9164 83.6693 84.8503 83.8141 84.7965 83.9649C84.4001 85.0896 85.1487 86.2084 85.8564 86.5234C86.5641 86.8384 87.4592 86.182 87.8556 85.0572C88.2465 83.9478 87.8644 82.5384 87.1748 82.1979L87.1754 82.1965L85.7068 81.5092L79.7052 78.658L79.705 78.6578L79.5103 78.5654L77.2893 77.5102L74.1352 86.4601L82.532 90.4541L82.5761 90.499Z" fill="white"/>
<path d="M55.9664 44.663L55.9674 44.6607L53.4393 43.4775L42.8734 38.8615L45.5401 36.1951C45.5401 36.1951 47.314 33.4291 50.1436 35.3476L49.3161 33.9653C49.3161 33.9653 47.7603 31.6506 45.5826 34.0996C45.5826 34.0996 42.8881 38.5639 38.6556 37.4259L53.1103 44.3015L53.1861 44.3787L52.2121 46.9598C52.0788 47.1959 51.965 47.4453 51.8722 47.7048C51.1899 49.641 52.4786 51.5669 53.6969 52.1092C54.9152 52.6514 56.456 51.5214 57.1383 49.5852C57.8113 47.6754 57.1536 45.2492 55.9664 44.663Z" fill="white"/>
<path d="M63.7248 83.4376C58.4776 80.066 59.5276 72.6673 59.5276 72.6673C59.3956 67.8607 55.862 68.5411 55.862 68.5411L54.576 68.8709C53.9786 68.5593 53.3207 68.4226 52.6637 68.4734L50.7074 68.8434C55.162 70.0197 54.796 74.2076 54.796 74.2076L55.42 79.1043L43.7479 73.8125L45.088 70.2613C45.2732 69.9334 45.4312 69.587 45.5601 69.2266C46.5078 66.5374 44.7179 63.8625 43.0258 63.1094C41.3337 62.3562 39.1937 63.9257 38.246 66.6149C37.3112 69.2674 38.2248 72.6372 39.8737 73.4514L39.8723 73.4546L43.3835 75.0979L43.4097 75.0049L63.7248 83.4376ZM57.7975 74.8338L58.1731 79.537C55.9692 76.2492 56.4197 72.3431 56.4197 72.3431C56.3886 71.436 56.1163 70.5601 55.638 69.8286C58.1695 71.5312 57.7975 74.8338 57.7975 74.8338H57.7975Z" fill="white"/>
</g>
<defs>
<clipPath id="clip0_2_5">
<path d="M0 16C0 7.16345 7.16344 0 16 0H304.644C313.481 0 320.644 7.16344 320.644 16V245H0V16Z" fill="white"/>
</clipPath>
</defs>
</svg>
