<svg width="20" height="26" viewBox="0 0 20 26" fill="none" xmlns="http://www.w3.org/2000/svg">
<path d="M19.0694 1.0438C18.8963 0.9104 18.6946 0.818949 18.4801 0.77663C18.2657 0.73431 18.0443 0.742274 17.8335 0.799897L6.93317 3.73005C6.55495 3.83164 6.22122 4.05603 5.98442 4.36795C5.74763 4.67988 5.62122 5.06165 5.62504 5.45325V17.8126C5.62504 18.1812 5.3866 18.4995 5.01746 18.6236L5.0109 18.6264L2.16715 19.6108C1.07942 19.9744 0.37504 20.9845 0.37504 22.1827C0.371057 22.6701 0.484407 23.1512 0.705518 23.5855C0.92663 24.0199 1.24901 24.3946 1.64543 24.6781C2.15592 25.0489 2.77047 25.2491 3.40145 25.2501C3.73155 25.2495 4.05938 25.1954 4.37215 25.0899L4.39293 25.0828L5.58731 24.6486C6.10541 24.4756 6.55638 24.1448 6.87699 23.7026C7.19759 23.2604 7.37175 22.7289 7.37504 22.1827V10.589C7.37504 10.1903 7.6359 9.86653 8.04004 9.76482L8.05153 9.76153L17.6016 7.21091C17.6339 7.20258 17.6676 7.20173 17.7003 7.20843C17.7329 7.21513 17.7636 7.2292 17.79 7.24956C17.8164 7.26992 17.8377 7.29605 17.8525 7.32593C17.8672 7.35582 17.8749 7.38868 17.875 7.422V15.1838C17.875 15.5529 17.6426 15.8608 17.2675 15.9866L17.2538 15.9915L14.4707 16.9819C13.9295 17.1599 13.459 17.5055 13.1272 17.9687C12.7954 18.4318 12.6195 18.9885 12.625 19.5583C12.6202 20.0471 12.7331 20.5299 12.9542 20.9658C13.1753 21.4018 13.4982 21.7781 13.8954 22.0629C14.2844 22.3441 14.7354 22.5275 15.2102 22.5974C15.685 22.6674 16.1697 22.6219 16.6232 22.4649L16.6429 22.4583L17.8373 22.0236C18.3554 21.8507 18.8063 21.52 19.1269 21.0779C19.4475 20.6358 19.6217 20.1044 19.625 19.5583V2.17201C19.6262 1.95375 19.5767 1.73821 19.4802 1.54241C19.3838 1.3466 19.2432 1.17591 19.0694 1.0438Z" fill="#222222"/>
</svg>
